<?xml version="1.0" standalone="no"?><!DOCTYPE svg PUBLIC "-//W3C//DTD SVG 1.1//EN" "http://www.w3.org/Graphics/SVG/1.1/DTD/svg11.dtd"><svg t="1693555508477" class="icon" viewBox="0 0 1298 1024" version="1.1" xmlns="http://www.w3.org/2000/svg" p-id="7269" xmlns:xlink="http://www.w3.org/1999/xlink" width="253.515625" height="200"><path d="M239.36 998.985143H111.890286C50.084571 998.985143 0 949.083429 0 887.570286V111.414857C0 49.883429 50.102857 0 111.872 0h127.506286c61.769143 0 111.853714 49.883429 111.853714 111.414857V887.588571c0 61.513143-50.230857 111.414857-111.853714 111.414858zM111.890286 76.946286c-19.291429 0-34.761143 15.414857-34.761143 34.614857V274.285714H201.142857a36.571429 36.571429 0 1 1 0 73.142857H77.110857v109.714286H201.142857a36.571429 36.571429 0 1 1 0 73.142857H77.110857v109.714286H201.142857a36.571429 36.571429 0 1 1 0 73.142857H77.110857v174.573714c0 19.2 15.469714 34.614857 34.742857 34.614858h127.524572c19.273143 0 34.742857-15.414857 34.742857-34.614858V111.414857c0-19.2-15.469714-34.614857-34.742857-34.614857H111.872v0.146286zM623.378286 998.985143h-127.506286c-61.769143 0-111.853714-49.901714-111.853714-111.414857V111.414857C384 49.883429 434.102857 0 495.853714 0h127.506286a111.798857 111.798857 0 0 1 109.714286 89.6 109.238857 109.238857 0 0 1 63.926857-45.385143L936.96 10.569143c28.763429-7.552 59.721143-3.766857 84.845714 11.648 24.96 15.268571 44.251429 38.4 51.986286 67.2L1276.342857 838.656c15.469714 59.483429-19.291429 121.014857-79.158857 136.429714l-139.958857 33.645715c-9.636571 1.883429-19.273143 3.785143-28.891429 3.785142a111.36 111.36 0 0 1-108.068571-82.633142l-185.051429-684.909715V887.588571c0 61.513143-50.230857 111.414857-111.853714 111.414858zM495.872 76.946286c-19.273143 0-34.742857 15.414857-34.742857 34.614857V274.285714H585.142857a36.571429 36.571429 0 1 1 0 73.142857h-124.032v109.714286H585.142857a36.571429 36.571429 0 1 1 0 73.142857h-124.032v109.714286H585.142857a36.571429 36.571429 0 1 1 0 73.142857h-124.032v174.573714c0 19.2 15.488 34.614857 34.761143 34.614858h127.506286c19.273143 0 34.742857-15.414857 34.742857-34.614858V111.414857c0-19.2-15.469714-34.614857-34.742857-34.614857h-127.506286v0.146286z m469.869714 4.754285c-3.803429 0-5.851429 0-9.636571 1.901715l-139.958857 33.645714c-19.273143 5.814857-28.909714 22.966857-25.124572 42.313143L993.572571 908.8c5.851429 19.2 23.076571 28.8 42.496 25.014857l139.958858-33.645714c19.273143-5.814857 28.909714-22.966857 25.124571-42.313143L998.582857 108.617143c-1.901714-9.6-7.734857-17.316571-15.488-21.101714a30.336 30.336 0 0 0-17.371428-5.814858z" fill="#2c2c2c" p-id="7270"></path></svg>