<?xml version="1.0" standalone="no"?><!DOCTYPE svg PUBLIC "-//W3C//DTD SVG 1.1//EN" "http://www.w3.org/Graphics/SVG/1.1/DTD/svg11.dtd"><svg t="1693554827822" class="icon" viewBox="0 0 1380 1024" version="1.1" xmlns="http://www.w3.org/2000/svg" p-id="5192" xmlns:xlink="http://www.w3.org/1999/xlink" width="269.53125" height="200"><path d="M1285.11233 0 94.493753 0C42.520582 0 0 42.868987 0 95.246374L0 928.751934c0 52.385844 42.520582 95.248066 94.493753 95.248066l1190.618577 0c51.979936 0 94.500518-42.863913 94.500518-95.248066L1379.612848 95.246374C1379.612848 42.868987 1337.092266 0 1285.11233 0L1285.11233 0zM1227.204442 79.304327 710.623598 522.804771c-17.658701 17.831212-17.580902 17.86842-35.298797 0L158.755796 79.304327 1227.204442 79.304327 1227.204442 79.304327zM1301.984584 901.255032l-332.794038-356.800129c-18.465443-18.610894-48.353822-18.610894-66.819265 0-18.451913 18.597364-18.451913 48.756348 0 67.319886L1203.501091 945.546389 188.360039 945.546389l301.107824-333.773292c18.472209-18.563538 18.472209-48.763113 0-67.319886-18.445148-18.610894-48.353822-18.610894-66.805735 0L78.895036 907.188058 78.895036 147.008134l529.583439 443.123287c26.710455 26.884657 49.510661 46.835049 87.452936 46.835049 37.93551 0 54.848354-19.952082 81.518218-46.835049L1301.984584 146.976 1301.984584 901.255032 1301.984584 901.255032zM1301.984584 901.255032" fill="#272636" p-id="5193"></path></svg>